<?xml version="1.0" encoding="UTF-8" standalone="no"?>
<!DOCTYPE svg PUBLIC "-//W3C//DTD SVG 1.1//EN" "http://www.w3.org/Graphics/SVG/1.1/DTD/svg11.dtd">
<svg width="100%" height="100%" viewBox="0 0 1080 1080" version="1.1" xmlns="http://www.w3.org/2000/svg" xmlns:xlink="http://www.w3.org/1999/xlink" xml:space="preserve" xmlns:serif="http://www.serif.com/" style="fill-rule:evenodd;clip-rule:evenodd;stroke-linecap:round;stroke-linejoin:round;stroke-miterlimit:1.5;">
    <g transform="matrix(1.28905,0,0,1.34432,-128.92,-206.39)">
        <path d="M425.057,441.295C424.718,441.544 430.273,451.591 460.421,486.331C504,536.546 549.471,585.13 593.686,634.787" style="fill:none;stroke:rgb(90,150,221);stroke-width:55.28px;"/>
        <g transform="matrix(1.75415,0,0,1.75415,-131.388,-608.158)">
            <path d="M259.78,454.365C256.169,449.911 240.353,457.225 236.939,458.706C215.303,468.092 196.351,485.752 181.854,504.005C166.91,522.818 151.707,549.066 154.012,573.996C159.504,633.395 240.791,662.45 291.229,652.675C358.701,639.599 410.195,563.409 366.673,500.255C339.324,460.569 280.94,450.139 236.901,460.968" style="fill:rgb(148,187,233);"/>
            <clipPath id="_clip1">
                <path d="M259.78,454.365C256.169,449.911 240.353,457.225 236.939,458.706C215.303,468.092 196.351,485.752 181.854,504.005C166.91,522.818 151.707,549.066 154.012,573.996C159.504,633.395 240.791,662.45 291.229,652.675C358.701,639.599 410.195,563.409 366.673,500.255C339.324,460.569 280.94,450.139 236.901,460.968"/>
            </clipPath>
            <g clip-path="url(#_clip1)">
                <g transform="matrix(1,0,0,1,95.1927,226.794)">
                    <g transform="matrix(1.38338,0,0,1.38338,-30.6929,-374.667)">
                        <path d="M124.074,482.244C127.897,487.547 129.433,496.236 130.898,502.355C134.276,516.468 136.913,531.375 137.263,545.936" style="fill:none;stroke:rgb(32,87,153);stroke-width:11.63px;"/>
                    </g>
                    <g transform="matrix(1.38338,0,0,1.38338,-30.6929,-374.667)">
                        <path d="M125.92,481.203C136.897,478.279 147.892,474.104 159.145,472.49" style="fill:none;stroke:rgb(32,87,153);stroke-width:11.63px;"/>
                    </g>
                    <g transform="matrix(1.38338,0,0,1.38338,-30.6929,-374.667)">
                        <path d="M137.073,507.326C134.045,506.97 145.046,506.489 145.767,506.415C152.802,505.697 159.723,504.157 166.788,503.702" style="fill:none;stroke:rgb(32,87,153);stroke-width:11.63px;"/>
                    </g>
                </g>
            </g>
            <path d="M259.78,454.365C256.169,449.911 240.353,457.225 236.939,458.706C215.303,468.092 196.351,485.752 181.854,504.005C166.91,522.818 151.707,549.066 154.012,573.996C159.504,633.395 240.791,662.45 291.229,652.675C358.701,639.599 410.195,563.409 366.673,500.255C339.324,460.569 280.94,450.139 236.901,460.968" style="fill:none;stroke:rgb(90,150,221);stroke-width:18.71px;"/>
        </g>
        <g transform="matrix(1.95033,0,0,1.95033,167.101,-866.019)">
            <path d="M268.851,722.447C192.712,743.667 155.838,868.62 236.908,908.47C247.566,913.709 259.155,916.489 270.955,917.478C284.17,918.586 297.302,917.112 309.793,912.576C352.496,897.065 377.816,852.458 375.355,807.708C372.914,763.324 335.635,719.188 288.721,720.963C273.276,721.548 257.957,727.217 244.286,734.07" style="fill:rgb(238,206,35);"/>
            <clipPath id="_clip2">
                <path d="M268.851,722.447C192.712,743.667 155.838,868.62 236.908,908.47C247.566,913.709 259.155,916.489 270.955,917.478C284.17,918.586 297.302,917.112 309.793,912.576C352.496,897.065 377.816,852.458 375.355,807.708C372.914,763.324 335.635,719.188 288.721,720.963C273.276,721.548 257.957,727.217 244.286,734.07"/>
            </clipPath>
            <g clip-path="url(#_clip2)">
                <g transform="matrix(1.38338,0,0,1.38338,-401.542,55.4475)">
                    <path d="M481.532,525.457C481.937,525.457 481.665,528.771 481.659,528.997C481.545,532.71 481.345,536.417 481.117,540.125C480.467,550.685 479.773,561.255 479.442,571.831C479.326,575.55 478.206,581.692 479.811,585.315C479.933,585.591 483.064,583.699 483.168,583.646C485.547,582.439 488.066,581.49 490.597,580.658C497.873,578.265 505.578,576.729 513.259,576.977" style="fill:none;stroke:rgb(253,249,229);stroke-width:11.14px;"/>
                </g>
            </g>
            <path d="M268.851,722.447C192.712,743.667 155.838,868.62 236.908,908.47C247.566,913.709 259.155,916.489 270.955,917.478C284.17,918.586 297.302,917.112 309.793,912.576C352.496,897.065 377.816,852.458 375.355,807.708C372.914,763.324 335.635,719.188 288.721,720.963C273.276,721.548 257.957,727.217 244.286,734.07" style="fill:none;stroke:rgb(244,223,113);stroke-width:16.82px;"/>
        </g>
    </g>
</svg>
