<?xml version="1.0" encoding="UTF-8" standalone="no"?>
<!DOCTYPE svg PUBLIC "-//W3C//DTD SVG 1.1//EN" "http://www.w3.org/Graphics/SVG/1.1/DTD/svg11.dtd">
<svg width="100%" height="100%" viewBox="0 0 1350 400" version="1.1" xmlns="http://www.w3.org/2000/svg" xmlns:xlink="http://www.w3.org/1999/xlink" xml:space="preserve" xmlns:serif="http://www.serif.com/" style="fill-rule:evenodd;clip-rule:evenodd;stroke-linecap:round;stroke-linejoin:round;stroke-miterlimit:1.5;">
    <g transform="matrix(1,0,0,1,-15.2918,-290.725)">
        <g id="connectors">
            <g transform="matrix(2.453,0,0,1.90297,-587.727,-422.059)">
                <path d="M373.521,456.914C388.171,467.968 402.31,481.912 415.593,494.637C418.539,497.459 428.166,501.354 429.268,505.557" style="fill:none;stroke:rgb(90,150,221);stroke-width:9.57px;"/>
            </g>
            <path d="M265.554,446.052C238.638,471.517 212.888,498.497 188.845,526.686" style="fill:none;stroke:rgb(90,150,221);stroke-width:21px;"/>
            <g transform="matrix(1.47808,0,0,1.40293,-419.112,-171.708)">
                <path d="M801.358,507.302C805.218,501.268 811.63,496.519 816.539,491.389C828.288,479.113 839.827,466.67 851.377,454.21C856.987,448.158 862.769,442.268 868.27,436.115C870.268,433.88 872.329,431.685 874.155,429.304C874.427,428.949 877.148,425.352 876.582,426.316" style="fill:none;stroke:rgb(90,150,221);stroke-width:14.57px;"/>
            </g>
            <g transform="matrix(0.980341,-0.197309,0.197309,0.980341,-77.3048,198.394)">
                <path d="M930.187,436.537C953.316,466.693 964.279,505.366 983.731,537.744" style="fill:none;stroke:rgb(90,150,221);stroke-width:21px;"/>
            </g>
            <path d="M1108.98,449.37C1101.06,450.726 1090.54,463.264 1084.83,468.119C1064.09,485.783 1044.46,504.966 1022.99,521.759" style="fill:none;stroke:rgb(90,150,221);stroke-width:21px;"/>
            <g transform="matrix(0.975285,-0.220952,0.220952,0.975285,-59.6108,267.404)">
                <path d="M1154.96,460.604C1161.14,463.228 1166.28,477.576 1169,482.664C1180.97,505.082 1192.46,528.141 1201.82,551.778" style="fill:none;stroke:rgb(90,150,221);stroke-width:21px;"/>
            </g>
            <g transform="matrix(1.52529,-0.632833,0.425765,1.0262,-523.504,352.376)">
                <path d="M509.475,497.014C528.072,481.98 548.597,469.547 566.995,454.114C573.086,449.004 579.154,443.865 585.284,438.801C587.441,437.019 589.578,435.196 591.815,433.512C592.775,432.79 594.993,430.369 594.844,431.561" style="fill:none;stroke:rgb(244,223,113);stroke-width:14.92px;"/>
            </g>
            <g transform="matrix(0.99007,-0.140574,0.140574,0.99007,-81.5758,102.164)">
                <path d="M658.709,452.734C678.168,483.356 705.758,508.063 729.333,535.305" style="fill:none;stroke:rgb(244,223,113);stroke-width:21px;"/>
            </g>
        </g>
        <g id="blue" transform="matrix(0.722865,0,0,0.722865,22.1868,270.834)">
            <g transform="matrix(1,0,0,1,340.247,-126.326)">
                <path d="M821.865,235.805C787.137,244.744 735.721,279.209 737.702,319.443C738.68,339.31 751.947,356.532 766.665,368.739C798.611,395.236 848.728,408.295 886.343,385.865C927.212,361.496 940.832,303.517 913.728,263.947C902.538,247.609 885.308,237.044 866.711,231.04C848.22,225.071 823.783,223.296 806.142,233.071C802.227,235.24 793.158,240.604 791.954,245.621" style="fill:rgb(148,187,233);"/>
                <clipPath id="_clip1">
                    <path d="M821.865,235.805C787.137,244.744 735.721,279.209 737.702,319.443C738.68,339.31 751.947,356.532 766.665,368.739C798.611,395.236 848.728,408.295 886.343,385.865C927.212,361.496 940.832,303.517 913.728,263.947C902.538,247.609 885.308,237.044 866.711,231.04C848.22,225.071 823.783,223.296 806.142,233.071C802.227,235.24 793.158,240.604 791.954,245.621"/>
                </clipPath>
                <g clip-path="url(#_clip1)">
                    <g transform="matrix(1.38338,0,0,1.38338,-423.866,-233.984)">
                        <path d="M924.349,379.357C920.248,378.866 916.227,378.426 912.075,378.586C893.349,379.308 892.71,383.433 891.813,402.145C891.602,406.561 891.863,424.834 892.824,425.198C895.432,426.186 916.083,423.653 920.549,423.841" style="fill:none;stroke:rgb(32,87,153);stroke-width:10px;"/>
                        <path d="M891.762,402.214C895.521,401.313 899.439,401.241 903.28,401.374" style="fill:none;stroke:rgb(32,87,153);stroke-width:10px;"/>
                    </g>
                </g>
                <path d="M821.865,235.805C787.137,244.744 735.721,279.209 737.702,319.443C738.68,339.31 751.947,356.532 766.665,368.739C798.611,395.236 848.728,408.295 886.343,385.865C927.212,361.496 940.832,303.517 913.728,263.947C902.538,247.609 885.308,237.044 866.711,231.04C848.22,225.071 823.783,223.296 806.142,233.071C802.227,235.24 793.158,240.604 791.954,245.621" style="fill:none;stroke:rgb(90,150,221);stroke-width:13.83px;"/>
            </g>
            <g transform="matrix(1,0,0,1,504.935,-149.369)">
                <path d="M837.704,459.467C825.145,457.272 812.423,462.953 801.346,468.629C773.785,482.75 749.887,504.242 745.126,536.28C736.263,595.923 799.231,654.928 858.336,641.664C920.967,627.608 952.127,540.904 924.03,486.36C903.669,446.835 843.05,430.257 805.707,455.625" style="fill:rgb(148,187,233);"/>
                <clipPath id="_clip2">
                    <path d="M837.704,459.467C825.145,457.272 812.423,462.953 801.346,468.629C773.785,482.75 749.887,504.242 745.126,536.28C736.263,595.923 799.231,654.928 858.336,641.664C920.967,627.608 952.127,540.904 924.03,486.36C903.669,446.835 843.05,430.257 805.707,455.625"/>
                </clipPath>
                <g clip-path="url(#_clip2)">
                    <g transform="matrix(1.38338,0,0,1.38338,-250.651,-221.934)">
                        <path d="M806.574,533.976C802.958,545.036 801.805,557.602 800.154,569.053C799.995,570.161 799.626,580.538 798.49,580.916C796.621,581.539 791.916,566.251 791.555,565.167C789.641,559.415 787.664,553.727 785.221,548.172C783.993,545.381 782.681,542.631 781.227,539.95C779.924,537.548 774.327,526.799 773.929,530.367C773.094,537.848 770.77,545.309 768.781,552.535C766.999,559.011 765.142,565.466 763.379,571.948" style="fill:none;stroke:rgb(32,87,153);stroke-width:10px;"/>
                    </g>
                </g>
                <path d="M837.704,459.467C825.145,457.272 812.423,462.953 801.346,468.629C773.785,482.75 749.887,504.242 745.126,536.28C736.263,595.923 799.231,654.928 858.336,641.664C920.967,627.608 952.127,540.904 924.03,486.36C903.669,446.835 843.05,430.257 805.707,455.625" style="fill:none;stroke:rgb(90,150,221);stroke-width:13.83px;"/>
            </g>
            <g transform="matrix(1,0,0,1,-212.134,-346.154)">
                <path d="M543.74,462.055C501.848,462.055 465.862,510.425 471.787,550.216C480.793,610.706 558.814,658.862 616.003,633.313C676.234,606.405 670.474,519.329 630.814,477.634C606.267,451.827 553.678,438.747 525.042,465.252" style="fill:rgb(148,187,233);"/>
                <clipPath id="_clip3">
                    <path d="M543.74,462.055C501.848,462.055 465.862,510.425 471.787,550.216C480.793,610.706 558.814,658.862 616.003,633.313C676.234,606.405 670.474,519.329 630.814,477.634C606.267,451.827 553.678,438.747 525.042,465.252"/>
                </clipPath>
                <g clip-path="url(#_clip3)">
                    <g transform="matrix(1.38338,0,0,1.38338,113.655,-363.754)">
                        <path d="M326.815,633.716C325.097,630.422 327.125,635.204 327.388,637.448C327.922,641.993 328.331,646.553 328.73,651.111C329.596,660.992 330.716,670.922 330.972,680.842C331.073,684.763 330.894,688.681 330.921,692.601C330.924,692.986 330.746,695.86 331.537,695.634" style="fill:none;stroke:rgb(32,87,153);stroke-width:10px;"/>
                    </g>
                </g>
                <path d="M543.74,462.055C501.848,462.055 465.862,510.425 471.787,550.216C480.793,610.706 558.814,658.862 616.003,633.313C676.234,606.405 670.474,519.329 630.814,477.634C606.267,451.827 553.678,438.747 525.042,465.252" style="fill:none;stroke:rgb(90,150,221);stroke-width:13.83px;"/>
            </g>
            <g transform="matrix(1,0,0,1,-105.219,-165.088)">
                <path d="M259.78,454.365C256.169,449.911 240.353,457.225 236.939,458.706C215.303,468.092 196.351,485.752 181.854,504.005C166.91,522.818 151.707,549.066 154.012,573.996C159.504,633.395 240.791,662.45 291.229,652.675C358.701,639.599 410.195,563.409 366.673,500.255C339.324,460.569 280.94,450.139 236.901,460.968" style="fill:rgb(148,187,233);"/>
                <clipPath id="_clip4">
                    <path d="M259.78,454.365C256.169,449.911 240.353,457.225 236.939,458.706C215.303,468.092 196.351,485.752 181.854,504.005C166.91,522.818 151.707,549.066 154.012,573.996C159.504,633.395 240.791,662.45 291.229,652.675C358.701,639.599 410.195,563.409 366.673,500.255C339.324,460.569 280.94,450.139 236.901,460.968"/>
                </clipPath>
                <g clip-path="url(#_clip4)">
                    <g transform="matrix(1,0,0,1,95.1927,226.794)">
                        <g transform="matrix(1.38338,0,0,1.38338,-30.6929,-374.667)">
                            <path d="M124.074,482.244C127.897,487.547 129.433,496.236 130.898,502.355C134.276,516.468 136.913,531.375 137.263,545.936" style="fill:none;stroke:rgb(32,87,153);stroke-width:10px;"/>
                        </g>
                        <g transform="matrix(1.38338,0,0,1.38338,-30.6929,-374.667)">
                            <path d="M125.92,481.203C136.897,478.279 147.892,474.104 159.145,472.49" style="fill:none;stroke:rgb(32,87,153);stroke-width:10px;"/>
                        </g>
                        <g transform="matrix(1.38338,0,0,1.38338,-30.6929,-374.667)">
                            <path d="M137.073,507.326C134.045,506.97 145.046,506.489 145.767,506.415C152.802,505.697 159.723,504.157 166.788,503.702" style="fill:none;stroke:rgb(32,87,153);stroke-width:10px;"/>
                        </g>
                    </g>
                </g>
                <path d="M259.78,454.365C256.169,449.911 240.353,457.225 236.939,458.706C215.303,468.092 196.351,485.752 181.854,504.005C166.91,522.818 151.707,549.066 154.012,573.996C159.504,633.395 240.791,662.45 291.229,652.675C358.701,639.599 410.195,563.409 366.673,500.255C339.324,460.569 280.94,450.139 236.901,460.968" style="fill:none;stroke:rgb(90,150,221);stroke-width:13.83px;"/>
            </g>
            <g transform="matrix(1,0,0,1,655.822,-626.289)">
                <path d="M862.73,722.082C811.58,722.082 751.509,772.783 756.123,825.737C761.285,884.974 831.211,927.467 886.695,919.487C947.963,910.675 985.993,845.133 961.933,787.622C942.312,740.722 885.233,714.894 836.703,727.708" style="fill:rgb(148,187,233);"/>
                <clipPath id="_clip5">
                    <path d="M862.73,722.082C811.58,722.082 751.509,772.783 756.123,825.737C761.285,884.974 831.211,927.467 886.695,919.487C947.963,910.675 985.993,845.133 961.933,787.622C942.312,740.722 885.233,714.894 836.703,727.708"/>
                </clipPath>
                <g clip-path="url(#_clip5)">
                    <g transform="matrix(1.38338,0,0,1.38338,-71.2296,-203.128)">
                        <path d="M669.144,715.401C669.144,732.29 669.891,749.053 672.02,765.828" style="fill:none;stroke:rgb(32,87,153);stroke-width:10px;"/>
                        <path d="M685.822,709.558C674.192,707.964 659.281,716.051 648.705,719.572" style="fill:none;stroke:rgb(32,87,153);stroke-width:10px;"/>
                    </g>
                </g>
                <path d="M862.73,722.082C811.58,722.082 751.509,772.783 756.123,825.737C761.285,884.974 831.211,927.467 886.695,919.487C947.963,910.675 985.993,845.133 961.933,787.622C942.312,740.722 885.233,714.894 836.703,727.708" style="fill:none;stroke:rgb(90,150,221);stroke-width:13.83px;"/>
            </g>
            <g transform="matrix(1,0,0,1,525.245,-401.236)">
                <path d="M1151.2,689.998C1151.2,690.468 1147.55,690.646 1147.24,690.706C1143.29,691.454 1139.5,692.813 1135.98,694.732C1127.21,699.502 1120.06,707.645 1113.82,715.259C1092.8,740.925 1079.39,774.31 1075.35,807.112C1064.43,895.725 1173.84,929.108 1234.59,879.214C1323.92,805.847 1251.72,655.576 1138.37,690.77" style="fill:rgb(148,187,233);"/>
                <clipPath id="_clip6">
                    <path d="M1151.2,689.998C1151.2,690.468 1147.55,690.646 1147.24,690.706C1143.29,691.454 1139.5,692.813 1135.98,694.732C1127.21,699.502 1120.06,707.645 1113.82,715.259C1092.8,740.925 1079.39,774.31 1075.35,807.112C1064.43,895.725 1173.84,929.108 1234.59,879.214C1323.92,805.847 1251.72,655.576 1138.37,690.77"/>
                </clipPath>
                <g clip-path="url(#_clip6)">
                    <g transform="matrix(1.38338,0,0,1.38338,-110.488,-281.98)">
                        <path d="M937.897,751.839C930.292,751.839 915.046,762.35 919.646,771.396C923.97,779.901 951.108,789.096 931.585,802.968C929.229,804.642 926.575,805.89 923.869,806.883C920.14,808.252 916.351,808.934 912.412,809.323" style="fill:none;stroke:rgb(32,87,153);stroke-width:10px;"/>
                    </g>
                </g>
                <path d="M1151.2,689.998C1151.2,690.468 1147.55,690.646 1147.24,690.706C1143.29,691.454 1139.5,692.813 1135.98,694.732C1127.21,699.502 1120.06,707.645 1113.82,715.259C1092.8,740.925 1079.39,774.31 1075.35,807.112C1064.43,895.725 1173.84,929.108 1234.59,879.214C1323.92,805.847 1251.72,655.576 1138.37,690.77" style="fill:none;stroke:rgb(90,150,221);stroke-width:13.83px;"/>
            </g>
        </g>
        <g id="yellow" transform="matrix(0.722865,0,0,0.722865,21.2606,270.834)">
            <g transform="matrix(1,0,0,1,517.008,-80.7579)">
                <path d="M246.772,178.231C196.123,184.067 159.254,267.761 169.708,311.433C183.427,368.743 262.994,393.299 312.915,371.238C392.743,335.961 353.612,237.409 300.001,198.484C276.513,181.43 240.917,167.59 215.113,187.197" style="fill:rgb(238,206,35);"/>
                <clipPath id="_clip7">
                    <path d="M246.772,178.231C196.123,184.067 159.254,267.761 169.708,311.433C183.427,368.743 262.994,393.299 312.915,371.238C392.743,335.961 353.612,237.409 300.001,198.484C276.513,181.43 240.917,167.59 215.113,187.197"/>
                </clipPath>
                <g clip-path="url(#_clip7)">
                    <g transform="matrix(1.38338,0,0,1.38338,-535.092,-252.043)">
                        <path d="M556.038,410.568C557.832,401.939 561.495,393.274 564.236,384.917C566,379.535 567.701,374.132 569.459,368.748C570.954,364.17 572.617,359.653 574.256,355.125C574.394,354.744 576.783,348.178 576.688,348.151C574.702,347.584 577.193,358.655 577.262,358.94C580.175,370.974 583.133,382.93 587.452,394.558C588.201,396.577 590.723,407.127 593.092,407.976" style="fill:none;stroke:rgb(253,249,229);stroke-width:10px;"/>
                        <path d="M587.034,386.583C578.305,386.932 566.708,394.526 559.2,398.322" style="fill:none;stroke:rgb(253,249,229);stroke-width:10px;"/>
                    </g>
                </g>
                <path d="M246.772,178.231C196.123,184.067 159.254,267.761 169.708,311.433C183.427,368.743 262.994,393.299 312.915,371.238C392.743,335.961 353.612,237.409 300.001,198.484C276.513,181.43 240.917,167.59 215.113,187.197" style="fill:none;stroke:rgb(244,223,113);stroke-width:13.83px;"/>
            </g>
            <g transform="matrix(1,0,0,1,291.894,-416.614)">
                <path d="M268.851,722.447C192.712,743.667 155.838,868.62 236.908,908.47C247.566,913.709 259.155,916.489 270.955,917.478C284.17,918.586 297.302,917.112 309.793,912.576C352.496,897.065 377.816,852.458 375.355,807.708C372.914,763.324 335.635,719.188 288.721,720.963C273.276,721.548 257.957,727.217 244.286,734.07" style="fill:rgb(238,206,35);"/>
                <clipPath id="_clip8">
                    <path d="M268.851,722.447C192.712,743.667 155.838,868.62 236.908,908.47C247.566,913.709 259.155,916.489 270.955,917.478C284.17,918.586 297.302,917.112 309.793,912.576C352.496,897.065 377.816,852.458 375.355,807.708C372.914,763.324 335.635,719.188 288.721,720.963C273.276,721.548 257.957,727.217 244.286,734.07"/>
                </clipPath>
                <g clip-path="url(#_clip8)">
                    <g transform="matrix(1.38338,0,0,1.38338,-401.542,55.4475)">
                        <path d="M481.532,525.457C481.937,525.457 481.665,528.771 481.659,528.997C481.545,532.71 481.345,536.417 481.117,540.125C480.467,550.685 479.773,561.255 479.442,571.831C479.326,575.55 478.206,581.692 479.811,585.315C479.933,585.591 483.064,583.699 483.168,583.646C485.547,582.439 488.066,581.49 490.597,580.658C497.873,578.265 505.578,576.729 513.259,576.977" style="fill:none;stroke:rgb(253,249,229);stroke-width:10px;"/>
                    </g>
                </g>
                <path d="M268.851,722.447C192.712,743.667 155.838,868.62 236.908,908.47C247.566,913.709 259.155,916.489 270.955,917.478C284.17,918.586 297.302,917.112 309.793,912.576C352.496,897.065 377.816,852.458 375.355,807.708C372.914,763.324 335.635,719.188 288.721,720.963C273.276,721.548 257.957,727.217 244.286,734.07" style="fill:none;stroke:rgb(244,223,113);stroke-width:13.83px;"/>
            </g>
            <g transform="matrix(1,0,0,1,426.092,-431.335)">
                <path d="M577.379,739.507C574.322,735.581 560.488,738.007 556.881,738.45C534.83,741.159 513.004,754.298 496.276,768.272C474.871,786.154 455.596,810.275 451.45,838.616C443.335,894.086 495.703,938.077 546.425,943.346C560.871,944.847 575.117,943.432 589.043,939.333C699.711,906.758 666.805,740.052 560.333,729.839" style="fill:rgb(238,206,35);"/>
                <clipPath id="_clip9">
                    <path d="M577.379,739.507C574.322,735.581 560.488,738.007 556.881,738.45C534.83,741.159 513.004,754.298 496.276,768.272C474.871,786.154 455.596,810.275 451.45,838.616C443.335,894.086 495.703,938.077 546.425,943.346C560.871,944.847 575.117,943.432 589.043,939.333C699.711,906.758 666.805,740.052 560.333,729.839"/>
                </clipPath>
                <g clip-path="url(#_clip9)">
                    <g transform="matrix(1.38338,0,0,1.38338,-483.171,455.547)">
                        <path d="M730.725,308.633C731.5,301.538 730.802,294.106 731.009,286.979C731.158,281.838 731.431,276.701 731.687,271.564C731.843,268.425 732.032,265.288 732.196,262.15C732.3,260.159 732.399,258.167 732.45,256.174C732.996,234.831 738.08,270.374 747.444,271.188C750.204,271.427 762.283,235.505 763.455,257.352C763.59,259.867 763.782,262.38 764.004,264.888C764.348,268.767 764.788,272.638 765.251,276.504C765.938,282.239 766.75,287.955 767.608,293.666" style="fill:none;stroke:rgb(253,249,229);stroke-width:10px;"/>
                    </g>
                </g>
                <path d="M577.379,739.507C574.322,735.581 560.488,738.007 556.881,738.45C534.83,741.159 513.004,754.298 496.276,768.272C474.871,786.154 455.596,810.275 451.45,838.616C443.335,894.086 495.703,938.077 546.425,943.346C560.871,944.847 575.117,943.432 589.043,939.333C699.711,906.758 666.805,740.052 560.333,729.839" style="fill:none;stroke:rgb(244,223,113);stroke-width:13.83px;"/>
            </g>
        </g>
    </g>
</svg>
