<?xml version="1.0" standalone="no"?>
<!DOCTYPE svg PUBLIC "-//W3C//DTD SVG 20010904//EN"
 "http://www.w3.org/TR/2001/REC-SVG-20010904/DTD/svg10.dtd">
<svg version="1.0" xmlns="http://www.w3.org/2000/svg"
 width="3840.000000pt" height="3840.000000pt" viewBox="0 0 3840.000000 3840.000000"
 preserveAspectRatio="xMidYMid meet">
<metadata>
Created by potrace 1.14, written by Peter Selinger 2001-2017
</metadata>
<g transform="translate(0.000000,3840.000000) scale(0.100000,-0.100000)"
fill="#000000" stroke="none">
<path d="M9828 37595 c-2 -2 -32 -5 -68 -9 -270 -24 -627 -121 -1040 -283
-120 -47 -138 -54 -233 -97 -32 -14 -59 -26 -61 -26 -3 0 -37 -15 -78 -34 -40
-18 -111 -51 -158 -71 -310 -137 -685 -334 -1020 -534 -134 -80 -457 -293
-635 -419 -299 -210 -811 -619 -1061 -847 -391 -356 -739 -701 -1069 -1059 -6
-6 -44 -49 -85 -96 -41 -46 -94 -105 -116 -130 -23 -25 -70 -79 -105 -120 -35
-41 -68 -80 -74 -86 -54 -59 -360 -432 -447 -544 -14 -19 -53 -69 -86 -111
-263 -335 -670 -914 -897 -1279 -43 -69 -88 -141 -101 -160 -12 -19 -65 -109
-118 -200 -53 -91 -100 -172 -105 -180 -6 -8 -63 -114 -129 -235 -140 -258
-180 -335 -284 -555 -102 -214 -147 -314 -223 -495 -145 -350 -284 -737 -356
-1000 -59 -210 -106 -393 -115 -440 -3 -16 -16 -78 -29 -136 -40 -178 -93
-510 -110 -694 -4 -38 -8 -81 -10 -95 -27 -182 -27 -886 0 -1095 3 -16 7 -57
10 -90 10 -108 45 -342 69 -470 8 -44 17 -91 20 -105 37 -196 109 -476 178
-690 39 -123 135 -394 158 -445 10 -22 23 -56 31 -75 11 -31 22 -57 77 -180
33 -75 193 -399 239 -485 94 -173 381 -632 445 -710 4 -5 43 -57 86 -115 126
-170 259 -337 392 -490 135 -155 450 -479 615 -631 684 -630 1493 -1180 2365
-1610 91 -45 199 -98 241 -119 119 -59 568 -252 744 -320 88 -34 174 -68 190
-75 17 -7 57 -22 90 -33 33 -11 146 -50 250 -87 105 -36 228 -77 275 -91 47
-14 114 -35 150 -46 114 -35 291 -87 320 -93 8 -2 51 -13 95 -25 262 -69 344
-90 374 -95 19 -3 37 -7 40 -9 3 -2 24 -7 46 -10 22 -4 48 -9 57 -12 9 -3 27
-7 40 -10 13 -2 41 -9 63 -13 88 -19 292 -60 320 -65 66 -10 213 -37 255 -46
25 -5 63 -11 85 -14 22 -3 104 -14 182 -25 78 -12 164 -23 190 -26 26 -3 55
-8 63 -10 8 -2 47 -7 87 -10 40 -4 85 -8 100 -10 15 -2 66 -7 113 -10 47 -4
92 -9 102 -10 18 -4 132 -13 248 -20 41 -2 122 -7 180 -12 222 -15 1032 -8
1260 12 25 2 79 6 120 10 117 9 200 16 218 20 10 1 49 6 87 10 39 4 79 9 90
11 11 2 45 6 75 9 30 3 66 8 80 10 14 3 43 7 65 11 42 6 67 10 150 24 115 21
215 40 285 55 41 9 113 25 160 35 47 11 121 28 165 40 44 12 88 23 98 25 10 2
52 14 95 25 42 12 82 23 87 24 101 24 608 187 695 224 14 6 79 31 145 56 391
146 882 375 1270 590 63 35 401 236 494 294 92 57 84 56 128 4 22 -26 109
-128 193 -227 84 -99 174 -205 200 -235 26 -30 143 -167 261 -305 117 -137
216 -252 219 -255 3 -3 48 -54 100 -115 52 -60 97 -112 100 -115 3 -3 30 -34
60 -70 62 -73 108 -126 130 -150 8 -8 40 -45 70 -80 30 -36 60 -70 65 -76 6
-6 30 -35 55 -64 25 -29 50 -58 55 -64 6 -6 53 -60 105 -121 52 -60 97 -112
100 -115 3 -3 30 -34 60 -70 30 -36 57 -67 60 -70 3 -3 77 -88 165 -190 87
-102 171 -198 186 -215 15 -16 76 -86 135 -155 59 -69 110 -127 113 -130 3 -3
31 -34 61 -70 30 -36 57 -67 60 -70 3 -3 34 -39 70 -80 36 -41 70 -80 75 -86
22 -25 346 -398 452 -520 10 -12 43 -50 74 -85 66 -75 281 -322 313 -359 36
-44 151 -175 156 -180 3 -3 50 -57 105 -120 55 -63 104 -120 110 -126 5 -7 31
-36 56 -65 46 -54 410 -476 500 -579 86 -99 99 -115 99 -121 0 -4 -34 -71 -76
-150 -71 -135 -264 -525 -264 -534 0 -2 -22 -50 -49 -107 -64 -135 -138 -309
-256 -598 -94 -231 -225 -600 -310 -875 -16 -49 -31 -94 -34 -100 -3 -5 -6
-14 -7 -20 -1 -5 -24 -89 -52 -185 -48 -166 -99 -350 -107 -388 -2 -9 -16 -66
-30 -127 -15 -60 -37 -155 -50 -210 -41 -171 -118 -566 -140 -720 -11 -74 -16
-100 -20 -115 -2 -8 -6 -35 -9 -60 -5 -42 -32 -243 -41 -300 -4 -26 -14 -120
-30 -285 -3 -33 -8 -73 -10 -90 -2 -16 -7 -75 -11 -130 -3 -55 -8 -116 -9
-135 -3 -37 -14 -246 -20 -390 -6 -126 -6 -597 0 -735 8 -201 23 -459 31 -525
6 -54 11 -102 19 -193 5 -60 29 -261 40 -327 2 -14 7 -47 10 -75 10 -75 15
-108 20 -125 2 -8 6 -35 9 -60 7 -55 69 -381 90 -470 8 -36 17 -76 20 -90 12
-70 94 -378 146 -555 80 -269 225 -682 295 -840 7 -16 44 -100 81 -185 69
-161 226 -481 299 -610 23 -41 56 -101 74 -133 17 -33 54 -96 82 -140 65 -106
62 -100 112 -182 109 -180 389 -571 526 -735 35 -41 77 -92 95 -113 17 -21 39
-48 49 -60 10 -12 33 -38 50 -57 18 -19 75 -82 127 -139 109 -120 366 -377
466 -466 36 -33 83 -75 103 -94 20 -18 90 -78 156 -133 66 -55 131 -110 145
-121 115 -97 657 -487 677 -487 2 0 19 -11 36 -24 43 -33 341 -211 452 -271
50 -26 121 -65 159 -87 182 -102 612 -303 824 -384 214 -82 292 -111 427 -156
83 -28 164 -54 180 -59 17 -4 93 -26 170 -49 125 -37 540 -143 605 -155 14 -2
50 -9 80 -15 30 -6 66 -13 80 -16 14 -2 39 -7 55 -11 40 -9 33 -8 90 -18 28
-5 52 -9 55 -10 10 -3 86 -15 125 -21 22 -3 52 -7 68 -10 15 -2 39 -6 55 -8
15 -3 63 -10 107 -16 44 -6 90 -13 103 -15 13 -2 53 -7 90 -10 37 -4 78 -8 92
-11 14 -2 56 -6 95 -10 38 -3 81 -7 95 -10 14 -2 61 -6 105 -9 44 -3 99 -8
122 -10 236 -25 1041 -25 1283 0 19 2 71 6 115 9 44 4 94 9 110 11 17 3 57 7
90 10 70 6 137 14 180 20 17 3 48 7 70 10 22 3 54 7 70 10 17 3 48 7 70 10
229 33 785 155 1005 221 296 89 692 226 805 278 17 8 75 32 130 54 55 22 134
56 175 75 41 19 131 61 200 92 69 32 157 75 195 95 39 21 129 68 200 105 72
37 154 83 183 101 29 19 55 34 58 34 14 0 452 273 554 345 267 189 346 246
480 350 85 66 166 130 180 142 14 12 86 72 160 134 74 63 142 120 150 129 9 8
72 67 141 130 145 134 407 397 530 531 47 52 109 119 137 150 321 350 791 984
1067 1439 49 80 100 163 114 185 14 22 26 42 26 45 0 3 10 21 21 40 150 247
445 833 569 1130 15 36 35 83 44 105 128 292 301 772 406 1125 25 85 52 175
60 200 11 36 46 170 59 225 9 38 20 79 37 140 15 57 56 234 74 320 2 11 13 65
25 120 12 55 24 114 27 130 2 17 10 62 18 100 15 75 41 224 50 290 4 22 8 51
11 65 2 14 6 45 10 70 3 25 9 70 14 100 10 60 16 108 24 185 3 28 10 88 16
135 5 47 12 110 15 140 3 30 7 75 10 100 2 25 7 88 10 140 4 52 8 113 10 135
26 256 26 1275 0 1470 -2 17 -7 80 -10 140 -4 61 -8 121 -10 135 -2 14 -7 52
-11 85 -3 33 -8 68 -9 77 -2 9 -7 48 -10 85 -4 37 -9 77 -11 87 -2 11 -6 42
-9 70 -3 28 -10 74 -15 101 -5 28 -11 66 -14 85 -15 103 -61 345 -92 490 -20
91 -37 172 -39 180 -29 135 -205 762 -235 835 -4 11 -17 47 -29 80 -73 216
-144 409 -176 480 -7 17 -27 66 -43 110 -26 68 -99 236 -185 425 -11 25 -21
47 -21 50 -2 9 -215 430 -257 508 -36 66 -204 361 -234 411 -5 9 -35 57 -64
106 -51 83 -295 457 -314 480 -4 6 -65 89 -135 185 -408 563 -841 1038 -1398
1535 -71 64 -150 132 -172 149 -15 11 -29 23 -32 26 -3 3 -25 21 -50 40 -68
53 -71 55 -135 107 -33 26 -80 63 -105 81 -274 200 -283 207 -560 387 -159
104 -482 286 -702 396 -108 55 -199 99 -202 99 -3 0 -38 15 -78 34 -40 19
-125 55 -188 82 -63 26 -128 53 -145 59 -129 54 -593 210 -682 230 -10 2 -88
22 -173 44 -85 22 -166 42 -180 45 -14 3 -79 17 -145 31 -66 14 -151 30 -190
36 -84 13 -92 14 -175 27 -224 36 -439 56 -695 68 -254 12 -687 6 -855 -10
-19 -2 -69 -7 -110 -10 -41 -4 -84 -9 -95 -11 -11 -3 -49 -7 -85 -10 -36 -3
-76 -7 -90 -9 -14 -3 -43 -7 -65 -10 -85 -11 -198 -28 -300 -46 -33 -6 -69
-13 -80 -15 -11 -2 -65 -13 -121 -24 -55 -12 -109 -23 -120 -25 -10 -3 -41 -9
-68 -16 -40 -9 -57 -8 -98 6 -102 34 -162 42 -277 39 -119 -2 -124 -3 -220
-31 -710 -204 -1462 -546 -2156 -983 -176 -110 -488 -321 -541 -365 -11 -8
-66 -50 -124 -93 -58 -42 -107 -80 -110 -83 -3 -4 -25 -22 -50 -41 -51 -39
-189 -149 -206 -164 -13 -12 -90 -78 -204 -175 -47 -40 -87 -76 -90 -79 -3 -4
-57 -54 -120 -111 -195 -178 -534 -522 -695 -705 -38 -44 -82 -92 -96 -107
l-27 -27 -107 124 c-58 69 -112 130 -118 137 -7 7 -69 78 -137 158 -69 80
-137 159 -151 175 -144 164 -201 229 -244 279 -27 33 -55 64 -60 70 -6 6 -69
79 -140 161 -71 83 -141 162 -155 177 -14 15 -30 33 -35 40 -6 7 -44 51 -85
98 -41 47 -100 115 -130 150 -30 36 -71 83 -91 105 -20 22 -45 51 -57 65 -31
37 -51 61 -114 131 -31 35 -65 74 -75 85 -108 126 -215 249 -298 344 -22 25
-65 75 -95 110 -30 35 -59 68 -65 74 -5 6 -37 43 -70 81 -33 39 -62 72 -65 75
-3 3 -36 42 -74 87 -38 45 -71 83 -75 85 -3 2 -22 23 -41 48 -19 25 -41 52
-50 60 -8 8 -56 62 -105 120 -50 58 -92 107 -95 110 -3 3 -32 37 -65 75 -161
186 -323 374 -444 515 -74 85 -161 186 -195 224 -34 38 -68 78 -76 90 -8 12
-19 26 -25 31 -6 6 -90 102 -186 215 -95 113 -176 207 -179 210 -3 3 -25 30
-50 60 -25 30 -48 57 -51 60 -3 3 -30 34 -60 70 -29 36 -60 70 -68 76 -13 10
-8 19 31 60 104 110 127 136 253 284 107 126 160 189 209 250 20 25 40 50 45
56 285 350 679 939 927 1384 76 137 282 544 324 640 18 41 46 104 62 140 39
85 168 396 168 405 0 4 6 21 14 38 15 36 87 226 91 242 1 6 5 17 8 25 6 14 77
236 117 365 29 91 96 340 125 462 22 91 38 163 71 318 2 11 10 54 19 95 14 73
18 93 30 174 4 21 8 46 10 55 3 14 20 133 30 201 2 14 6 43 10 65 6 43 11 85
20 185 3 36 8 76 10 90 3 14 7 61 10 105 3 44 8 105 10 136 16 193 22 753 11
929 -3 41 -8 120 -11 175 -4 55 -8 114 -10 130 -1 17 -6 64 -9 105 -4 41 -9
86 -11 100 -2 14 -7 54 -10 90 -4 36 -9 67 -10 70 -2 3 -6 34 -10 69 -4 34 -8
70 -10 79 -1 9 -6 37 -10 62 -3 25 -18 106 -31 180 -14 74 -28 149 -30 165 -3
17 -7 36 -10 44 -4 11 -11 47 -39 181 -2 8 -20 80 -40 160 -32 130 -46 181
-63 230 -3 8 -7 23 -9 33 -17 91 -193 595 -288 827 -90 220 -351 773 -385 815
-4 6 -26 44 -48 85 -64 121 -190 332 -312 524 -63 98 -119 185 -125 194 -5 9
-16 22 -23 30 -6 7 -17 23 -23 35 -7 11 -16 26 -21 31 -4 6 -43 58 -86 116
-143 194 -281 367 -408 510 -157 177 -213 237 -360 385 -259 260 -462 442
-724 647 -69 54 -129 102 -135 106 -329 261 -877 602 -1360 846 -385 195 -646
311 -980 436 -77 29 -153 58 -170 65 -51 22 -481 161 -650 210 -161 47 -595
160 -657 170 -18 3 -49 10 -68 15 -47 12 -178 40 -215 46 -16 2 -41 7 -55 10
-14 3 -36 8 -50 10 -51 9 -214 40 -260 49 -14 2 -45 7 -70 10 -25 4 -57 8 -72
11 -16 2 -40 6 -55 8 -16 3 -48 7 -73 11 -25 3 -56 8 -70 10 -30 6 -126 18
-232 30 -24 2 -63 7 -88 10 -100 12 -138 16 -200 20 -36 3 -87 7 -115 10 -27
3 -75 7 -105 10 -30 3 -89 7 -130 10 -41 2 -127 7 -190 11 -178 10 -328 13
-677 13 l-321 1 -19 23 c-10 13 -47 46 -83 73 -155 120 -312 187 -530 225 -56
10 -344 21 -352 14z"/>
</g>
</svg>
